<?xml version="1.0" standalone="no"?>
<!DOCTYPE svg PUBLIC "-//W3C//DTD SVG 20010904//EN"
 "http://www.w3.org/TR/2001/REC-SVG-20010904/DTD/svg10.dtd">
<svg version="1.0" xmlns="http://www.w3.org/2000/svg"
 width="2048.000000pt" height="2048.000000pt" viewBox="0 0 2048.000000 2048.000000"
 preserveAspectRatio="xMidYMid meet">

<g transform="translate(0.000000,2048.000000) scale(0.100000,-0.100000)"
fill="#000000" stroke="none">
<path d="M2425 19233 c-412 -54 -756 -261 -972 -585 -106 -159 -168 -322 -198
-518 -22 -144 -22 -15636 0 -15780 30 -197 92 -359 200 -520 193 -291 502
-494 862 -567 84 -17 419 -18 7923 -18 7504 0 7839 1 7923 18 566 115 978 537
1062 1087 22 144 22 15636 0 15780 -30 196 -92 359 -198 518 -191 286 -480
480 -842 566 l-90 21 -7820 1 c-4301 1 -7833 -1 -7850 -3z m3260 -3067 c280
-47 509 -147 712 -310 238 -192 403 -481 470 -821 24 -125 24 -396 0 -519 -84
-421 -333 -756 -707 -950 -388 -202 -932 -240 -1361 -96 -360 120 -658 380
-810 704 -89 191 -119 326 -126 562 -8 280 28 458 137 679 213 430 632 703
1175 765 109 12 400 4 510 -14z m7996 -3711 c725 -69 1321 -336 1779 -794 147
-147 230 -249 345 -421 304 -456 491 -996 574 -1660 46 -367 46 -340 46 -2940
l0 -2465 -1347 -3 -1347 -2 -4 2312 c-3 2541 0 2391 -63 2706 -146 730 -562
1121 -1224 1149 -430 18 -786 -116 -1079 -408 -205 -204 -380 -510 -424 -744
-9 -44 -19 -93 -23 -110 -4 -16 -10 -1126 -13 -2465 l-6 -2435 -1346 -3 -1345
-2 0 4055 1 4055 1348 0 1347 0 0 -567 0 -567 74 109 c406 599 931 974 1581
1130 150 36 295 60 440 74 152 14 520 12 686 -4z m-6971 -4230 l0 -4055 -1347
2 -1348 3 -3 4053 -2 4052 1350 0 1350 0 0 -4055z"/>
</g>
</svg>
